<?xml version="1.0" encoding="UTF-8" standalone="no"?>
<!-- Created with Inkscape (http://www.inkscape.org/) -->

<svg
   width="72.28598mm"
   height="10.380999mm"
   viewBox="0 0 72.28598 10.380999"
   version="1.1"
   id="svg1"
   sodipodi:docname="tokens1.svg"
   inkscape:version="1.4 (e7c3feb1, 2024-10-09)"
   xmlns:inkscape="http://www.inkscape.org/namespaces/inkscape"
   xmlns:sodipodi="http://sodipodi.sourceforge.net/DTD/sodipodi-0.dtd"
   xmlns="http://www.w3.org/2000/svg"
   xmlns:svg="http://www.w3.org/2000/svg">
  <sodipodi:namedview
     id="namedview1"
     pagecolor="#ffffff"
     bordercolor="#000000"
     borderopacity="0.25"
     inkscape:showpageshadow="2"
     inkscape:pageopacity="0.0"
     inkscape:pagecheckerboard="0"
     inkscape:deskcolor="#d1d1d1"
     inkscape:document-units="mm"
     inkscape:zoom="2.0193707"
     inkscape:cx="102.75479"
     inkscape:cy="6.6852511"
     inkscape:window-width="1512"
     inkscape:window-height="916"
     inkscape:window-x="0"
     inkscape:window-y="38"
     inkscape:window-maximized="0"
     inkscape:current-layer="layer1"
     showgrid="true">
    <inkscape:grid
       id="grid8"
       units="mm"
       originx="-99.809502"
       originy="-169.80949"
       spacingx="0.99999998"
       spacingy="1"
       empcolor="#0099e5"
       empopacity="0.30196078"
       color="#0099e5"
       opacity="0.14901961"
       empspacing="5"
       enabled="true"
       visible="true" />
  </sodipodi:namedview>
  <defs
     id="defs1">
    <defs
       id="id-e5886d2c-fc88-4375-bf74-237fd7da4a98">
      <g
         id="id-3bc3bc50-e29e-4d66-a4a7-674d44862b7a">
        <g
           id="id-a3304dda-4764-4732-b8fc-89dd50990880">
          <path
             d="m 4.359375,0.53125 c 0,-0.140625 -0.078125,-0.1875 -0.25,-0.296875 C 2.875,-0.609375 2.40625,-1.9375 2.40625,-3.046875 c 0,-1 0.390625,-2.390625 1.71875,-3.296875 0.15625,-0.109375 0.234375,-0.140625 0.234375,-0.296875 0,-0.078125 -0.046875,-0.28125 -0.3125,-0.28125 -0.28125,0 -2.328125,1.3125 -2.328125,3.875 0,1.1875 0.46875,2.078125 0.8125,2.578125 0.53125,0.734375 1.28125,1.28125 1.515625,1.28125 0.265625,0 0.3125,-0.1875 0.3125,-0.28125 z m 0,0"
             id="id-a8730994-7036-47ec-bddc-308b0431434c" />
        </g>
        <g
           id="id-d1790c13-950c-4d20-85ea-ef8758458641">
          <path
             d="M 3.65625,-3.328125 C 4.21875,-3.6875 4.5,-4.25 4.5,-4.796875 c 0,-0.734375 -0.734375,-1.40625 -1.875,-1.40625 -1.203125,0 -1.890625,0.484375 -1.890625,1.171875 0,0.328125 0.25,0.46875 0.4375,0.46875 0.21875,0 0.4375,-0.171875 0.4375,-0.453125 0,-0.140625 -0.046875,-0.234375 -0.078125,-0.265625 0.296875,-0.3125 1.015625,-0.3125 1.09375,-0.3125 0.6875,0 1.1875,0.359375 1.1875,0.8125 0,0.296875 -0.15625,0.640625 -0.421875,0.859375 C 3.078125,-3.65625 2.828125,-3.640625 2.46875,-3.625 1.890625,-3.578125 1.75,-3.578125 1.75,-3.296875 c 0,0.3125 0.234375,0.3125 0.390625,0.3125 h 0.46875 c 0.984375,0 1.484375,0.671875 1.484375,1.25 C 4.09375,-1.125 3.53125,-0.5 2.625,-0.5 2.234375,-0.5 1.46875,-0.609375 1.203125,-1.078125 1.25,-1.125 1.328125,-1.1875 1.328125,-1.390625 c 0,-0.234375 -0.1875,-0.4375 -0.4375,-0.4375 -0.234375,0 -0.453125,0.15625 -0.453125,0.46875 0,0.890625 0.96875,1.46875 2.1875,1.46875 1.3125,0 2.15625,-0.921875 2.15625,-1.84375 0,-0.703125 -0.46875,-1.296875 -1.125,-1.59375 z m 0,0"
             id="id-3bea1f4b-0631-4577-999d-443852b85485" />
        </g>
        <g
           id="id-b90d4a69-7b90-45cc-87da-ffd003741c7a">
          <path
             d="M 2.953125,-2.703125 H 4.375 c 0.125,0 0.46875,0 0.46875,-0.34375 C 4.84375,-3.40625 4.5,-3.40625 4.375,-3.40625 H 2.953125 v -1.421875 c 0,-0.109375 0,-0.46875 -0.34375,-0.46875 -0.34375,0 -0.34375,0.359375 -0.34375,0.46875 V -3.40625 H 0.84375 c -0.109375,0 -0.46875,0 -0.46875,0.359375 0,0.34375 0.359375,0.34375 0.46875,0.34375 h 1.421875 v 1.421875 c 0,0.125 0,0.46875 0.34375,0.46875 0.34375,0 0.34375,-0.34375 0.34375,-0.46875 z m 0,0"
             id="id-c83651f9-4ae1-46b7-92e3-8212a6913c4c" />
        </g>
        <g
           id="id-cabb2064-ec0a-4be4-b831-51844d3c463e">
          <path
             d="m 2.609375,-3.59375 c -0.71875,0 -1.34375,-0.4375 -1.34375,-1 0,-0.515625 0.5625,-1 1.34375,-1 0.78125,0 1.34375,0.484375 1.34375,1 0,0.5625 -0.609375,1 -1.34375,1 z m 0.796875,0.3125 c 0.796875,-0.265625 1.234375,-0.75 1.234375,-1.328125 0,-0.8125 -0.84375,-1.59375 -2.03125,-1.59375 -1.1875,0 -2.03125,0.796875 -2.03125,1.59375 0,0.578125 0.453125,1.078125 1.25,1.328125 -0.75,0.203125 -1.390625,0.796875 -1.390625,1.546875 0,0.96875 0.921875,1.84375 2.171875,1.84375 1.265625,0 2.171875,-0.875 2.171875,-1.84375 0,-0.75 -0.640625,-1.34375 -1.375,-1.546875 z M 2.609375,-0.5 C 1.78125,-0.5 1.125,-1.0625 1.125,-1.75 c 0,-0.609375 0.578125,-1.234375 1.484375,-1.234375 0.921875,0 1.484375,0.625 1.484375,1.234375 0,0.6875 -0.65625,1.25 -1.484375,1.25 z m 0,0"
             id="id-7007bcd3-b207-4030-8bc8-6a4006306c4f" />
        </g>
        <g
           id="id-969a3d46-fe76-4de6-88c1-218eb605fb5c">
          <path
             d="m 3.515625,-3.046875 c 0,-1.1875 -0.46875,-2.09375 -0.8125,-2.578125 -0.53125,-0.734375 -1.28125,-1.296875 -1.515625,-1.296875 -0.25,0 -0.3125,0.203125 -0.3125,0.28125 0,0.15625 0.109375,0.21875 0.15625,0.25 1.640625,1.09375 1.796875,2.6875 1.796875,3.34375 0,1 -0.375,2.375 -1.71875,3.28125 C 0.953125,0.34375 0.875,0.390625 0.875,0.53125 c 0,0.09375 0.0625,0.28125 0.3125,0.28125 0.28125,0 2.328125,-1.3125 2.328125,-3.859375 z m 0,0"
             id="id-13ca7c54-1a7b-44e5-b525-5756f96cf5de" />
        </g>
        <g
           id="id-f91149a3-ac9b-4812-8ea8-d6d410c18d31">
          <path
             d="m 2.90625,-2.515625 c 0.609375,0.328125 0.25,0.140625 0.9375,0.546875 0.265625,0.171875 0.296875,0.171875 0.375,0.171875 0.203125,0 0.328125,-0.1875 0.328125,-0.34375 0,-0.15625 -0.125,-0.25 -0.140625,-0.265625 -0.25,-0.171875 -0.921875,-0.5 -1.1875,-0.640625 L 4.296875,-3.625 c 0.125,-0.078125 0.25,-0.140625 0.25,-0.328125 0,-0.046875 0,-0.328125 -0.40625,-0.328125 L 2.90625,-3.5625 C 2.9375,-3.828125 2.9375,-4.484375 2.9375,-4.78125 c 0,-0.078125 0,-0.40625 -0.328125,-0.40625 -0.328125,0 -0.328125,0.328125 -0.328125,0.40625 0,0.296875 0.015625,0.953125 0.03125,1.21875 L 1.234375,-4.203125 C 1.09375,-4.28125 1.078125,-4.28125 1,-4.28125 c -0.1875,0 -0.328125,0.171875 -0.328125,0.328125 0,0.1875 0.109375,0.25 0.25,0.3125 L 2,-3.046875 0.921875,-2.46875 c -0.109375,0.078125 -0.25,0.140625 -0.25,0.328125 0,0.046875 0,0.34375 0.40625,0.34375 L 2.3125,-2.515625 c -0.015625,0.25 -0.03125,0.90625 -0.03125,1.203125 0,0.09375 0,0.421875 0.328125,0.421875 0.328125,0 0.328125,-0.328125 0.328125,-0.421875 0,-0.296875 0,-0.953125 -0.03125,-1.203125 z m 0,0"
             id="id-eaa29ba2-5782-40db-8f62-304310ee8b55" />
        </g>
        <g
           id="id-b61ed967-c8a4-45be-854a-fd5da86adef0">
          <path
             d="M 0.671875,-0.578125 C 0.578125,-0.5 0.515625,-0.453125 0.515625,-0.3125 0.515625,0 0.765625,0 0.921875,0 H 4.3125 c 0.328125,0 0.390625,-0.09375 0.390625,-0.40625 v -0.265625 c 0,-0.1875 0,-0.40625 -0.34375,-0.40625 -0.34375,0 -0.34375,0.1875 -0.34375,0.46875 h -2.375 c 0.59375,-0.5 1.546875,-1.25 1.984375,-1.65625 0.625,-0.5625 1.078125,-1.1875 1.078125,-1.984375 0,-1.203125 -1,-1.953125 -2.21875,-1.953125 -1.171875,0 -1.96875,0.8125 -1.96875,1.671875 0,0.359375 0.28125,0.46875 0.453125,0.46875 0.203125,0 0.4375,-0.171875 0.4375,-0.4375 0,-0.125 -0.046875,-0.25 -0.140625,-0.328125 0.15625,-0.453125 0.625,-0.765625 1.171875,-0.765625 0.8125,0 1.578125,0.453125 1.578125,1.34375 0,0.6875 -0.484375,1.265625 -1.140625,1.8125 z m 0,0"
             id="id-9fdd2df5-ccff-4f16-9cd2-d5849bd64d0d" />
        </g>
      </g>
    </defs>
  </defs>
  <g
     inkscape:label="Layer 1"
     inkscape:groupmode="layer"
     id="layer1"
     transform="translate(-99.8095,-169.80948)">
    <g
       transform="matrix(0.86850068,0,0,0.86850068,94.939676,151.36947)"
       id="g1"
       style="fill:#000000;fill-opacity:1">
      <path
         d="m 12.903866,30.794333 c 0,-0.140625 -0.07813,-0.1875 -0.25,-0.296875 -1.234375,-0.84375 -1.703125,-2.171875 -1.703125,-3.28125 0,-1 0.390625,-2.390625 1.71875,-3.296875 0.15625,-0.109375 0.234375,-0.140625 0.234375,-0.296875 0,-0.07813 -0.04687,-0.28125 -0.3125,-0.28125 -0.28125,0 -2.328125,1.3125 -2.328125,3.875 0,1.1875 0.46875,2.078125 0.8125,2.578125 0.53125,0.734375 1.28125,1.28125 1.515625,1.28125 0.265625,0 0.3125,-0.1875 0.3125,-0.28125 z m 0,0"
         id="id-3701c00e-da4f-4e63-a592-95bd7bdca665" />
    </g>
    <g
       transform="matrix(0.86850068,0,0,0.86850068,113.05125,177.6462)"
       id="g2"
       style="fill:#000000;fill-opacity:1">
      <path
         d="M 3.65625,-3.328125 C 4.21875,-3.6875 4.5,-4.25 4.5,-4.796875 c 0,-0.734375 -0.734375,-1.40625 -1.875,-1.40625 -1.203125,0 -1.890625,0.484375 -1.890625,1.171875 0,0.328125 0.25,0.46875 0.4375,0.46875 0.21875,0 0.4375,-0.171875 0.4375,-0.453125 0,-0.140625 -0.046875,-0.234375 -0.078125,-0.265625 0.296875,-0.3125 1.015625,-0.3125 1.09375,-0.3125 0.6875,0 1.1875,0.359375 1.1875,0.8125 0,0.296875 -0.15625,0.640625 -0.421875,0.859375 C 3.078125,-3.65625 2.828125,-3.640625 2.46875,-3.625 1.890625,-3.578125 1.75,-3.578125 1.75,-3.296875 c 0,0.3125 0.234375,0.3125 0.390625,0.3125 h 0.46875 c 0.984375,0 1.484375,0.671875 1.484375,1.25 C 4.09375,-1.125 3.53125,-0.5 2.625,-0.5 2.234375,-0.5 1.46875,-0.609375 1.203125,-1.078125 1.25,-1.125 1.328125,-1.1875 1.328125,-1.390625 c 0,-0.234375 -0.1875,-0.4375 -0.4375,-0.4375 -0.234375,0 -0.453125,0.15625 -0.453125,0.46875 0,0.890625 0.96875,1.46875 2.1875,1.46875 1.3125,0 2.15625,-0.921875 2.15625,-1.84375 0,-0.703125 -0.46875,-1.296875 -1.125,-1.59375 z m 0,0"
         id="id-90866b38-d9b0-4d5b-aba4-14d65369d7cb" />
    </g>
    <g
       transform="matrix(0.86850068,0,0,0.86850068,123.36875,177.65298)"
       id="g3"
       style="fill:#000000;fill-opacity:1">
      <path
         d="M 2.953125,-2.703125 H 4.375 c 0.125,0 0.46875,0 0.46875,-0.34375 C 4.84375,-3.40625 4.5,-3.40625 4.375,-3.40625 H 2.953125 v -1.421875 c 0,-0.109375 0,-0.46875 -0.34375,-0.46875 -0.34375,0 -0.34375,0.359375 -0.34375,0.46875 V -3.40625 H 0.84375 c -0.109375,0 -0.46875,0 -0.46875,0.359375 0,0.34375 0.359375,0.34375 0.46875,0.34375 h 1.421875 v 1.421875 c 0,0.125 0,0.46875 0.34375,0.46875 0.34375,0 0.34375,-0.34375 0.34375,-0.46875 z m 0,0"
         id="id-950f3d47-b284-4eb0-9e50-5f01fc063ed4" />
    </g>
    <g
       transform="matrix(0.86850068,0,0,0.86850068,133.68624,177.6462)"
       id="g4"
       style="fill:#000000;fill-opacity:1">
      <path
         d="m 2.609375,-3.59375 c -0.71875,0 -1.34375,-0.4375 -1.34375,-1 0,-0.515625 0.5625,-1 1.34375,-1 0.78125,0 1.34375,0.484375 1.34375,1 0,0.5625 -0.609375,1 -1.34375,1 z m 0.796875,0.3125 c 0.796875,-0.265625 1.234375,-0.75 1.234375,-1.328125 0,-0.8125 -0.84375,-1.59375 -2.03125,-1.59375 -1.1875,0 -2.03125,0.796875 -2.03125,1.59375 0,0.578125 0.453125,1.078125 1.25,1.328125 -0.75,0.203125 -1.390625,0.796875 -1.390625,1.546875 0,0.96875 0.921875,1.84375 2.171875,1.84375 1.265625,0 2.171875,-0.875 2.171875,-1.84375 0,-0.75 -0.640625,-1.34375 -1.375,-1.546875 z M 2.609375,-0.5 C 1.78125,-0.5 1.125,-1.0625 1.125,-1.75 c 0,-0.609375 0.578125,-1.234375 1.484375,-1.234375 0.921875,0 1.484375,0.625 1.484375,1.234375 0,0.6875 -0.65625,1.25 -1.484375,1.25 z m 0,0"
         id="id-3adefabf-55e3-4843-99ea-757c0f471e12" />
    </g>
    <g
       transform="matrix(0.86850068,0,0,0.86850068,144.36336,177.65298)"
       id="g5"
       style="fill:#000000;fill-opacity:1">
      <path
         d="m 3.515625,-3.046875 c 0,-1.1875 -0.46875,-2.09375 -0.8125,-2.578125 -0.53125,-0.734375 -1.28125,-1.296875 -1.515625,-1.296875 -0.25,0 -0.3125,0.203125 -0.3125,0.28125 0,0.15625 0.109375,0.21875 0.15625,0.25 1.640625,1.09375 1.796875,2.6875 1.796875,3.34375 0,1 -0.375,2.375 -1.71875,3.28125 C 0.953125,0.34375 0.875,0.390625 0.875,0.53125 c 0,0.09375 0.0625,0.28125 0.3125,0.28125 0.28125,0 2.328125,-1.3125 2.328125,-3.859375 z m 0,0"
         id="id-9b893dad-414b-4347-8e76-951973f0d7d3" />
    </g>
    <g
       transform="matrix(0.86850068,0,0,0.86850068,154.32125,177.63941)"
       id="g6"
       style="fill:#000000;fill-opacity:1">
      <path
         d="m 2.90625,-2.515625 c 0.609375,0.328125 0.25,0.140625 0.9375,0.546875 0.265625,0.171875 0.296875,0.171875 0.375,0.171875 0.203125,0 0.328125,-0.1875 0.328125,-0.34375 0,-0.15625 -0.125,-0.25 -0.140625,-0.265625 -0.25,-0.171875 -0.921875,-0.5 -1.1875,-0.640625 L 4.296875,-3.625 c 0.125,-0.078125 0.25,-0.140625 0.25,-0.328125 0,-0.046875 0,-0.328125 -0.40625,-0.328125 L 2.90625,-3.5625 C 2.9375,-3.828125 2.9375,-4.484375 2.9375,-4.78125 c 0,-0.078125 0,-0.40625 -0.328125,-0.40625 -0.328125,0 -0.328125,0.328125 -0.328125,0.40625 0,0.296875 0.015625,0.953125 0.03125,1.21875 L 1.234375,-4.203125 C 1.09375,-4.28125 1.078125,-4.28125 1,-4.28125 c -0.1875,0 -0.328125,0.171875 -0.328125,0.328125 0,0.1875 0.109375,0.25 0.25,0.3125 L 2,-3.046875 0.921875,-2.46875 c -0.109375,0.078125 -0.25,0.140625 -0.25,0.328125 0,0.046875 0,0.34375 0.40625,0.34375 L 2.3125,-2.515625 c -0.015625,0.25 -0.03125,0.90625 -0.03125,1.203125 0,0.09375 0,0.421875 0.328125,0.421875 0.328125,0 0.328125,-0.328125 0.328125,-0.421875 0,-0.296875 0,-0.953125 -0.03125,-1.203125 z m 0,0"
         id="id-a49efc9e-d374-4646-a6a1-2a353c83055b" />
    </g>
    <g
       transform="matrix(0.86850068,0,0,0.86850068,164.63874,177.69369)"
       id="g7"
       style="fill:#000000;fill-opacity:1">
      <path
         d="M 0.671875,-0.578125 C 0.578125,-0.5 0.515625,-0.453125 0.515625,-0.3125 0.515625,0 0.765625,0 0.921875,0 H 4.3125 c 0.328125,0 0.390625,-0.09375 0.390625,-0.40625 v -0.265625 c 0,-0.1875 0,-0.40625 -0.34375,-0.40625 -0.34375,0 -0.34375,0.1875 -0.34375,0.46875 h -2.375 c 0.59375,-0.5 1.546875,-1.25 1.984375,-1.65625 0.625,-0.5625 1.078125,-1.1875 1.078125,-1.984375 0,-1.203125 -1,-1.953125 -2.21875,-1.953125 -1.171875,0 -1.96875,0.8125 -1.96875,1.671875 0,0.359375 0.28125,0.46875 0.453125,0.46875 0.203125,0 0.4375,-0.171875 0.4375,-0.4375 0,-0.125 -0.046875,-0.25 -0.140625,-0.328125 0.15625,-0.453125 0.625,-0.765625 1.171875,-0.765625 0.8125,0 1.578125,0.453125 1.578125,1.34375 0,0.6875 -0.484375,1.265625 -1.140625,1.8125 z m 0,0"
         id="id-4d0e1240-95f0-4e73-ba4b-8c6b84778189" />
    </g>
    <rect
       style="fill:none;stroke:#666666;stroke-width:0.381;stroke-dasharray:none;stroke-opacity:1"
       id="rect8"
       width="10"
       height="9.999999"
       x="100"
       y="169.99998"
       ry="1.2385002e-06" />
    <rect
       style="fill:none;stroke:#666666;stroke-width:0.381;stroke-dasharray:none;stroke-opacity:1"
       id="rect8-9"
       width="10"
       height="9.999999"
       x="110.3175"
       y="169.99998"
       ry="1.2385002e-06" />
    <rect
       style="fill:none;stroke:#666666;stroke-width:0.381;stroke-dasharray:none;stroke-opacity:1"
       id="rect8-5"
       width="10"
       height="9.999999"
       x="120.63499"
       y="169.99998"
       ry="0" />
    <rect
       style="fill:none;stroke:#666666;stroke-width:0.381;stroke-dasharray:none;stroke-opacity:1"
       id="rect8-3"
       width="10"
       height="9.999999"
       x="130.95248"
       y="169.99998"
       ry="0" />
    <rect
       style="fill:none;stroke:#666666;stroke-width:0.381;stroke-dasharray:none;stroke-opacity:1"
       id="rect8-7"
       width="10"
       height="9.999999"
       x="141.26999"
       y="169.99998"
       ry="0" />
    <rect
       style="fill:none;stroke:#666666;stroke-width:0.381;stroke-dasharray:none;stroke-opacity:1"
       id="rect8-8"
       width="10"
       height="9.999999"
       x="151.58749"
       y="169.99998"
       ry="0" />
    <rect
       style="fill:none;stroke:#666666;stroke-width:0.381;stroke-dasharray:none;stroke-opacity:1"
       id="rect8-4"
       width="10"
       height="9.999999"
       x="161.90498"
       y="169.99998"
       ry="0" />
  </g>
</svg>
